<?xml version="1.0" encoding="utf-8"?>
<!-- Generator: Adobe Illustrator 21.0.2, SVG Export Plug-In . SVG Version: 6.00 Build 0)  -->
<svg version="1.1" id="Layer_1" xmlns="http://www.w3.org/2000/svg" xmlns:xlink="http://www.w3.org/1999/xlink" x="0px" y="0px"
	 viewBox="0 0 30 30" style="enable-background:new 0 0 30 30;" xml:space="preserve">
<style type="text/css">
	.st0{fill:#FFFFFF;}
</style>
<path class="st0" d="M15,0C6.7,0,0,6.7,0,15c0,8.3,6.7,15,15,15c8.3,0,15-6.7,15-15C30,6.7,23.3,0,15,0z M22,11.4c0,0.2,0,0.3,0,0.5
	c0,4.8-3.6,10.3-10.3,10.3c-2,0-3.9-0.6-5.6-1.8c0.3,0.1,0.6,0.1,0.9,0.1c1.7,0,3.3-0.5,4.5-1.5c-1.5,0-2.9-1-3.4-2.7
	c0.2,0.1,0.5,0.1,0.7,0.1c0.4,0,0.7,0,1-0.1c-1.7-0.3-2.9-1.7-2.9-3.5c0.4,0.3,1,0.5,1.6,0.5c-1-0.6-1.6-1.7-1.6-3
	c0-0.6,0.2-1.3,0.5-1.8c1.8,2.2,4.5,3.6,7.5,3.8c-0.1-0.2-0.1-0.5-0.1-0.8c0-2,1.6-3.6,3.6-3.6c1,0,1.9,0.4,2.6,1.1
	c0.9-0.2,1.6-0.5,2.3-0.9c-0.3,0.8-0.9,1.6-1.6,2c0.8-0.1,1.5-0.3,2.1-0.6C23.3,10.3,22.7,10.9,22,11.4z"/>
</svg>
