<?xml version="1.0" encoding="utf-8"?>
<!-- Generator: Adobe Illustrator 21.0.2, SVG Export Plug-In . SVG Version: 6.00 Build 0)  -->
<svg version="1.1" id="Layer_1" xmlns="http://www.w3.org/2000/svg" xmlns:xlink="http://www.w3.org/1999/xlink" x="0px" y="0px"
	 viewBox="0 0 31 30" style="enable-background:new 0 0 31 30;" xml:space="preserve">
<style type="text/css">
	.st0{fill:#FFFFFF;}
</style>
<path class="st0" d="M15.4,0C6.9,0,0,6.9,0,15.4C0,22.2,4.4,27.9,10.5,30c0.8,0.1,1-0.3,1-0.7c0-0.4,0-1.3,0-2.6
	c-4.3,0.9-5.2-2.1-5.2-2.1c-0.7-1.8-1.7-2.2-1.7-2.2c-1.4-1,0.1-0.9,0.1-0.9c1.6,0,2.4,1.5,2.4,1.5c1.4,2.4,3.6,1.7,4.5,1.3
	c0.1-1,0.5-1.7,1-2.1c-3.4-0.4-7-1.7-7-7.6c0-1.7,0.6-3.1,1.6-4.1c-0.2-0.4-0.7-2,0.2-4.1c0,0,1.3-0.4,4.2,1.6
	c1.2-0.3,2.5-0.5,3.9-0.5c1.3,0,2.6,0.2,3.9,0.5c2.9-2,4.2-1.6,4.2-1.6c0.8,2.1,0.3,3.7,0.2,4.1c1,1.1,1.6,2.4,1.6,4.1
	c0,5.9-3.6,7.2-7,7.6c0.6,0.5,1,1.4,1,2.8c0,2.1,0,3.7,0,4.2c0,0.4,0.3,0.9,1.1,0.7c6.1-2,10.5-7.8,10.5-14.6
	C30.8,6.9,23.9,0,15.4,0z"/>
</svg>
